<?xml version="1.0" encoding="UTF-8" standalone="no"?>
<!-- Created with Inkscape (http://www.inkscape.org/) -->

<svg
   width="19.300985mm"
   height="19.300987mm"
   viewBox="0 0 19.300985 19.300987"
   version="1.1"
   id="svg1"
   xml:space="preserve"
   inkscape:version="1.3 (0e150ed6c4, 2023-07-21)"
   sodipodi:docname="ikiteku.svg"
   xmlns:inkscape="http://www.inkscape.org/namespaces/inkscape"
   xmlns:sodipodi="http://sodipodi.sourceforge.net/DTD/sodipodi-0.dtd"
   xmlns:xlink="http://www.w3.org/1999/xlink"
   xmlns="http://www.w3.org/2000/svg"
   xmlns:svg="http://www.w3.org/2000/svg"><sodipodi:namedview
     id="namedview1"
     pagecolor="#ffffff"
     bordercolor="#000000"
     borderopacity="0.25"
     inkscape:showpageshadow="2"
     inkscape:pageopacity="0.0"
     inkscape:pagecheckerboard="0"
     inkscape:deskcolor="#d1d1d1"
     inkscape:document-units="mm"
     inkscape:zoom="0.38351221"
     inkscape:cx="1689.6464"
     inkscape:cy="-986.93078"
     inkscape:window-width="1858"
     inkscape:window-height="1057"
     inkscape:window-x="-8"
     inkscape:window-y="-8"
     inkscape:window-maximized="1"
     inkscape:current-layer="layer1"
     showguides="true" /><defs
     id="defs1"><linearGradient
       id="linearGradient104"
       inkscape:collect="always"><stop
         style="stop-color:#8b00cc;stop-opacity:1;"
         offset="0"
         id="stop104" /><stop
         style="stop-color:#b015ff;stop-opacity:1;"
         offset="1"
         id="stop105" /></linearGradient><linearGradient
       inkscape:collect="always"
       xlink:href="#linearGradient104"
       id="linearGradient105"
       x1="347.19699"
       y1="-444.41293"
       x2="372.83975"
       y2="-444.41293"
       gradientUnits="userSpaceOnUse" /></defs><g
     inkscape:label="Layer 1"
     inkscape:groupmode="layer"
     id="layer1"
     transform="translate(-344.75782,407.47567)"><g
       id="g105"
       transform="matrix(0.75268703,0,0,0.75268703,83.42717,-63.321339)"><path
         style="opacity:1;fill:url(#linearGradient105);fill-opacity:1;stroke:none;stroke-width:0.668211;stroke-dasharray:none;stroke-opacity:1;paint-order:stroke fill markers"
         id="path104"
         sodipodi:type="arc"
         sodipodi:cx="360.01837"
         sodipodi:cy="-444.41293"
         sodipodi:rx="12.82138"
         sodipodi:ry="12.82138"
         sodipodi:start="0"
         sodipodi:end="6.2651077"
         sodipodi:open="true"
         sodipodi:arc-type="arc"
         d="m 372.83975,-444.41293 a 12.82138,12.82138 0 0 1 -12.76343,12.82125 12.82138,12.82138 0 0 1 -12.8788,-12.70536 12.82138,12.82138 0 0 1 12.64702,-12.93609 12.82138,12.82138 0 0 1 12.99312,12.58843" /><path
         id="path103"
         style="opacity:1;fill:#f9f9f9;stroke-width:0.179962;paint-order:stroke fill markers"
         d="m 359.20163,-453.03618 c -0.0367,4.83896 -3.80493,7.07936 -7.79193,9.16734 l 7.99355,4.61522 c 3.9719,-2.26862 8.06566,-4.42923 7.69873,-10.54679 z m 7.98902,5.23734 c -0.2037,5.21758 -4.00931,7.23974 -7.71113,9.35404 l -7.21472,-4.16507 c -0.25816,0.13857 -0.51809,0.27619 -0.77917,0.4129 l 7.99389,4.61488 c 3.89904,-2.22694 7.91219,-4.35268 7.71113,-10.21675 z m 0,1.79204 c -0.2037,5.21754 -4.00931,7.23972 -7.71113,9.35404 l -7.21472,-4.16507 c -0.25816,0.13857 -0.51809,0.2762 -0.77917,0.41286 l 7.99389,4.61528 c 3.89904,-2.22701 7.91219,-4.35305 7.71113,-10.21711 z" /></g></g></svg>
