<?xml version="1.0" encoding="UTF-8" standalone="no"?>
<!-- Created with Inkscape (http://www.inkscape.org/) -->

<svg
   width="38.839554mm"
   height="42.061573mm"
   viewBox="0 0 38.839554 42.061573"
   version="1.1"
   id="svg1"
   xml:space="preserve"
   inkscape:version="1.3 (0e150ed6c4, 2023-07-21)"
   sodipodi:docname="ikiteku.svg"
   xmlns:inkscape="http://www.inkscape.org/namespaces/inkscape"
   xmlns:sodipodi="http://sodipodi.sourceforge.net/DTD/sodipodi-0.dtd"
   xmlns="http://www.w3.org/2000/svg"
   xmlns:svg="http://www.w3.org/2000/svg"><sodipodi:namedview
     id="namedview1"
     pagecolor="#ffffff"
     bordercolor="#000000"
     borderopacity="0.25"
     inkscape:showpageshadow="2"
     inkscape:pageopacity="0.0"
     inkscape:pagecheckerboard="0"
     inkscape:deskcolor="#d1d1d1"
     inkscape:document-units="mm"
     inkscape:zoom="0.1917561"
     inkscape:cx="1650.5342"
     inkscape:cy="544.9631"
     inkscape:window-width="1858"
     inkscape:window-height="1057"
     inkscape:window-x="-8"
     inkscape:window-y="-8"
     inkscape:window-maximized="1"
     inkscape:current-layer="layer1"
     showguides="true" /><defs
     id="defs1" /><g
     inkscape:label="Layer 1"
     inkscape:groupmode="layer"
     id="layer1"
     transform="translate(-861.6111,-66.473722)"><path
       style="opacity:1;fill:#f9f9f9;stroke-width:0.304858"
       d="m 887.54048,108.35603 c -1.43092,-0.53241 -9.75196,-3.61306 -13.00752,-4.81571 -2.03019,-0.74999 -3.82496,-1.41947 -3.98836,-1.48775 -0.32494,-0.13577 -0.86155,-0.51786 -0.80571,-0.5737 0.0315,-0.0315 3.93837,0.85884 12.4194,2.83018 3.27533,0.76133 3.75071,0.81621 4.6489,0.53665 0.95005,-0.29567 1.80943,-1.0319 2.22162,-1.9032 0.11274,-0.23842 0.42083,-1.3706 0.68454,-2.51597 0.26371,-1.145377 1.50031,-6.4926 2.74801,-11.88273 1.2477,-5.39013 2.3452,-10.14507 2.43889,-10.56651 0.0937,-0.42146 0.17716,-0.77654 0.18551,-0.78907 0.0328,-0.0493 3.80795,1.38146 4.12354,1.56279 0.45654,0.26229 0.8783,0.77533 1.08277,1.31705 0.29905,0.79231 0.20732,1.35481 -0.55345,3.39414 -0.35582,0.9538 -1.26795,3.41303 -2.02694,5.46495 -0.759,2.05193 -1.55849,4.21161 -1.77668,4.7993 -0.21816,0.58769 -1.41493,3.818153 -2.65945,7.1788 -1.24454,3.36065 -2.31519,6.20999 -2.37925,6.33184 -0.1706,0.32455 -0.76135,0.86316 -1.17799,1.07399 -0.5549,0.28082 -1.49193,0.30015 -2.17783,0.045 z m -4.71864,-5.13795 c -3.19077,-0.73293 -4.28749,-0.9826 -10.44551,-2.3779 -3.83792,-0.869607 -5.30321,-1.233357 -5.58615,-1.386727 -0.21095,-0.11439 -0.3692,-0.22222 -0.35169,-0.23975 0.0175,-0.0175 0.98865,0.0605 2.15807,0.17348 10.46268,1.010347 13.17781,1.260537 13.70098,1.262447 1.61446,0.006 3.00262,-1.005317 3.49722,-2.547567 0.0789,-0.24629 0.28661,-2.05197 0.53328,-4.637993 0.22218,-2.32905 0.47653,-4.9606 0.56524,-5.84787 0.0887,-0.88727 0.39992,-4.11772 0.69161,-7.17877 0.29168,-3.06106 0.59342,-6.22682 0.67055,-7.03502 0.0772,-0.8082 0.16603,-1.495266 0.19759,-1.526836 0.0315,-0.0315 0.66492,0.0794 1.40744,0.24656 2.17912,0.490596 2.70769,0.624856 2.95233,0.749836 0.43327,0.22138 0.96004,0.78407 1.1926,1.27395 0.36068,0.75971 0.32889,1.0925 -0.4198,4.39425 -0.35732,1.57584 -1.08196,4.77079 -1.61031,7.09985 -0.52834,2.32907 -1.58159,6.975 -2.34056,10.324313 -1.04949,4.631367 -1.43102,6.183477 -1.59322,6.481487 -0.45036,0.82746 -1.34877,1.34939 -2.29876,1.33545 -0.30805,-0.005 -1.43327,-0.22149 -2.92091,-0.56319 z m -2.9441,-3.797697 c -0.86508,-0.0894 -4.89727,-0.48175 -8.96041,-0.87199 -8.18746,-0.78637 -7.84,-0.72943 -8.52952,-1.39795 -0.19228,-0.18642 -0.44636,-0.52043 -0.56463,-0.74225 -0.19625,-0.3681 -0.21475,-0.48076 -0.21184,-1.29058 10e-4,-0.48799 0.10283,-1.885433 0.2246,-3.105413 0.2445,-2.44922 0.62428,-6.36757 1.05934,-10.92949 0.71687,-7.51665 0.84947,-8.858296 0.87844,-8.887266 0.017,-0.017 0.97932,0.061 2.1384,0.173316 2.71221,0.2629 2.7736,0.26213 3.3825,-0.0422 0.5741,-0.286876 0.93457,-0.719946 1.1041,-1.326446 0.062,-0.22181 0.19455,-1.283708 0.29457,-2.359774 0.10003,-1.076054 0.20322,-1.991044 0.22934,-2.033292 0.03,-0.04868 0.32759,-0.04843 0.81107,6.1e-4 0.71744,0.0727 7.75422,0.748957 11.7734,1.131495 1.23261,0.117314 1.94777,0.222554 2.23004,0.328163 0.5383,0.201405 1.06354,0.66882 1.35659,1.207234 0.41725,0.766634 0.47404,-0.129033 -0.8892,14.02633 -0.19868,2.06289 -0.55986,5.83781 -0.80264,8.38869 -0.57346,6.025623 -0.56834,5.984783 -0.81088,6.463423 -0.25011,0.49357 -0.73181,0.96946 -1.22932,1.21453 -0.50908,0.25075 -1.43255,0.26477 -3.48395,0.0529 z m 0.11909,-6.050793 c 0.38418,-0.17505 0.37293,-0.78759 -0.0173,-0.94013 -0.25918,-0.1013 -13.05508,-1.33449 -13.21409,-1.27347 -0.20342,0.078 -0.36806,0.42524 -0.31047,0.65469 0.0717,0.28582 0.38296,0.4087 1.20265,0.47482 0.35491,0.0286 1.60716,0.1449 2.78279,0.25837 2.75277,0.2657 9.21851,0.89984 9.29232,0.91136 0.0311,0.005 0.15002,-0.0337 0.26408,-0.0857 z m 0.66211,-5.72712 c 0.23124,-0.21722 0.24128,-0.55681 0.0224,-0.75495 -0.14303,-0.12944 -1.01426,-0.23079 -6.71305,-0.7809 -6.4558,-0.6232 -6.55161,-0.63002 -6.75229,-0.48091 -0.26648,0.19801 -0.30924,0.57546 -0.0878,0.7758 0.13463,0.12176 0.50587,0.18146 2.08093,0.33427 7.00272,0.67941 9.73542,0.94524 10.26542,0.9986 0.95324,0.096 0.98737,0.0933 1.18454,-0.0919 z m 0.55332,-5.66883 c 0.23475,-0.23475 0.25107,-0.44454 0.0535,-0.68844 -0.13741,-0.16969 -0.36363,-0.19948 -4.65814,-0.61323 -2.48254,-0.2392 -5.45149,-0.52553 -6.59767,-0.63631 -2.22291,-0.21485 -2.3483,-0.20653 -2.44081,0.16212 -0.0792,0.31545 0.025,0.57415 0.2689,0.66744 0.17689,0.0676 12.07567,1.25904 12.9507,1.2967 0.14134,0.006 0.29936,-0.0642 0.42346,-0.18828 z m 0.50269,-5.57381 c 0.22573,-0.15811 0.24368,-0.59773 0.0322,-0.78912 -0.18701,-0.16923 0.20603,-0.1238 -7.0702,-0.81807 -4.29026,-0.40939 -6.25438,-0.56819 -6.35587,-0.51388 -0.35272,0.18878 -0.32652,0.80179 0.0407,0.95258 0.10067,0.0413 2.54244,0.29912 5.42604,0.57282 2.88361,0.27371 5.69665,0.54329 6.25118,0.59908 1.38643,0.13948 1.47217,0.1393 1.67593,-0.004 z m -16.03349,-5.081416 c -0.99816,-0.10168 -1.82769,-0.18772 -1.8434,-0.1911 -0.0156,-0.004 1.30898,-1.05593 2.94372,-2.338977 1.63474,-1.283051 2.98048,-2.324596 2.99054,-2.314543 0.0552,0.05516 -0.39134,4.11472 -0.46913,4.26565 -0.13728,0.2663 -0.40681,0.54337 -0.65345,0.67169 -0.28299,0.14723 -0.75966,0.13235 -2.96828,-0.0927 z"
       id="path90" /></g></svg>
