<?xml version="1.0" encoding="UTF-8" standalone="no"?>
<!-- Created with Inkscape (http://www.inkscape.org/) -->

<svg
   width="52.380394mm"
   height="38.604355mm"
   viewBox="0 0 52.380394 38.604355"
   version="1.1"
   id="svg1"
   xml:space="preserve"
   inkscape:version="1.3 (0e150ed6c4, 2023-07-21)"
   sodipodi:docname="ikiteku.svg"
   xmlns:inkscape="http://www.inkscape.org/namespaces/inkscape"
   xmlns:sodipodi="http://sodipodi.sourceforge.net/DTD/sodipodi-0.dtd"
   xmlns="http://www.w3.org/2000/svg"
   xmlns:svg="http://www.w3.org/2000/svg"><sodipodi:namedview
     id="namedview1"
     pagecolor="#ffffff"
     bordercolor="#000000"
     borderopacity="0.25"
     inkscape:showpageshadow="2"
     inkscape:pageopacity="0.0"
     inkscape:pagecheckerboard="0"
     inkscape:deskcolor="#d1d1d1"
     inkscape:document-units="mm"
     inkscape:zoom="0.1917561"
     inkscape:cx="1650.5342"
     inkscape:cy="544.9631"
     inkscape:window-width="1858"
     inkscape:window-height="1057"
     inkscape:window-x="-8"
     inkscape:window-y="-8"
     inkscape:window-maximized="1"
     inkscape:current-layer="layer1"
     showguides="true" /><defs
     id="defs1" /><g
     inkscape:label="Layer 1"
     inkscape:groupmode="layer"
     id="layer1"
     transform="translate(-848.49959,-123.64087)"><path
       style="opacity:1;fill:#f9f9f9"
       d="m 869.39796,160.1918 c -5.39835,-2.36485 -5.79459,-2.60477 -6.56453,-3.97469 -0.50731,-0.90263 -0.57922,-1.42849 -0.57922,-4.2357 0,-1.76281 0.10203,-3.20512 0.22673,-3.20512 0.1247,0 2.92267,1.31701 6.21771,2.92668 l 5.99098,2.92667 5.99094,-2.92667 c 3.2951,-1.60967 6.093,-2.92668 6.2177,-2.92668 0.1247,0 0.2268,1.37188 0.2268,3.04862 v 3.04862 l -1.0973,1.19038 c -0.8664,0.93991 -2.1438,1.71804 -6.0713,3.69825 -2.73576,1.37934 -5.1888,2.49666 -5.4512,2.48293 -0.2624,-0.0137 -2.56069,-0.9377 -5.10731,-2.05329 z m 23.68021,-1.19413 c -2.7727,-1.30235 -3.0161,-2.06464 -3.0311,-9.49377 -0.01,-3.16508 -0.1009,-5.75469 -0.21,-5.75469 -0.1091,0 -3.5054,1.67502 -7.5473,3.72227 -4.04194,2.04725 -7.52552,3.68436 -7.74128,3.63802 -0.53447,-0.11478 -26.04432,-13.54357 -26.04894,-13.71256 -0.005,-0.19732 25.80903,-13.75608 26.19008,-13.75608 0.38084,0 26.19534,13.55863 26.19034,13.75608 0,0.074 -1.8458,1.14659 -4.0976,2.38352 l -4.0944,2.24896 v 6.16006 c 0,7.50872 0.1,7.87508 2.4441,8.62431 0.36,0.11506 0.463,0.44413 0.463,1.4792 0,1.2049 -0.056,1.33097 -0.5953,1.32863 -0.3274,-0.001 -1.1906,-0.2822 -1.9182,-0.62395 z"
       id="path91" /></g></svg>
