<?xml version="1.0" encoding="UTF-8" standalone="no"?>
<!-- Created with Inkscape (http://www.inkscape.org/) -->

<svg
   width="44.333469mm"
   height="44.265339mm"
   viewBox="0 0 44.333469 44.265339"
   version="1.1"
   id="svg1"
   xml:space="preserve"
   inkscape:version="1.3 (0e150ed6c4, 2023-07-21)"
   sodipodi:docname="ikiteku.svg"
   xmlns:inkscape="http://www.inkscape.org/namespaces/inkscape"
   xmlns:sodipodi="http://sodipodi.sourceforge.net/DTD/sodipodi-0.dtd"
   xmlns="http://www.w3.org/2000/svg"
   xmlns:svg="http://www.w3.org/2000/svg"><sodipodi:namedview
     id="namedview1"
     pagecolor="#ffffff"
     bordercolor="#000000"
     borderopacity="0.25"
     inkscape:showpageshadow="2"
     inkscape:pageopacity="0.0"
     inkscape:pagecheckerboard="0"
     inkscape:deskcolor="#d1d1d1"
     inkscape:document-units="mm"
     inkscape:zoom="0.1917561"
     inkscape:cx="1650.5342"
     inkscape:cy="544.9631"
     inkscape:window-width="1858"
     inkscape:window-height="1057"
     inkscape:window-x="-8"
     inkscape:window-y="-8"
     inkscape:window-maximized="1"
     inkscape:current-layer="layer1"
     showguides="true" /><defs
     id="defs1" /><g
     inkscape:label="Layer 1"
     inkscape:groupmode="layer"
     id="layer1"
     transform="translate(-854.57406,-178.40908)"><path
       style="opacity:1;fill:#f9f9f9;stroke-width:0.744155"
       d="m 854.81206,222.43916 c -0.182,-0.18198 -0.238,-3.84154 -0.238,-15.54919 0,-14.5548 0.018,-15.32058 0.3552,-15.50127 0.1953,-0.10454 0.4606,-0.12492 0.5894,-0.0453 0.177,0.10942 0.2466,3.79767 0.2847,15.09765 l 0.051,14.95287 9.3989,0.0511 9.3989,0.0511 0.052,-6.54853 0.052,-6.54853 0.5439,-0.0625 0.5439,-0.0625 -0.052,7.15062 -0.052,7.15062 -10.3449,0.051 c -7.8822,0.0388 -10.4015,-0.006 -10.5829,-0.18704 z m 22.8376,-10e-4 c -0.1761,-0.17613 -0.2362,-2.30224 -0.2362,-8.35177 0,-4.46352 0.054,-8.25564 0.1195,-8.42693 0.1069,-0.2786 1.2256,-0.31144 10.6091,-0.31144 h 10.4897 l 0.1187,0.44301 c 0.2135,0.79694 0.1397,16.0926 -0.08,16.50256 -0.1975,0.36907 -0.5219,0.38084 -10.4943,0.38084 -7.7412,0 -10.349,-0.0586 -10.5268,-0.23627 z m 19.8466,-8.42694 v -7.48186 h -9.3523 -9.3523 v 7.48186 7.48186 h 9.3523 9.3523 z m -10.3751,6.47566 c -2.0541,-0.26005 -3.9081,-1.60585 -4.9108,-3.56475 -0.7547,-1.47445 -0.8725,-3.73439 -0.277,-5.3133 0.5551,-1.47151 1.8968,-2.94528 3.3158,-3.64209 0.9801,-0.48131 1.3479,-0.55087 2.8948,-0.54746 2.0352,0.004 3.0034,0.36834 4.5108,1.69524 1.8898,1.66345 2.6048,4.70391 1.6817,7.15099 -1.0946,2.90158 -4.0379,4.62363 -7.2153,4.22137 z m 3.1886,-1.62392 c 1.3347,-0.6243 2.5527,-1.98865 2.9402,-3.29365 0.3925,-1.32177 0.3889,-2.05157 -0.016,-3.3067 -1.2749,-3.94754 -6.4767,-4.95197 -9.1955,-1.77559 -1.8178,2.12373 -1.6858,5.28247 0.3041,7.27233 1.5506,1.55056 4.0313,2.00933 5.9677,1.10361 z m -2.6186,-2.52843 c -0.13,-0.12994 -0.2363,-0.57294 -0.2363,-0.98445 0,-0.73768 -0.011,-0.74818 -0.7635,-0.74818 -0.8197,0 -1.3237,-0.39225 -1.1352,-0.88351 0.079,-0.20522 0.3917,-0.29784 1.0065,-0.29784 h 0.8922 v -0.87909 c 0,-0.66703 0.092,-0.92814 0.3801,-1.0825 0.5539,-0.29642 0.9981,0.2324 0.9981,1.18809 v 0.7735 h 0.865 c 0.6171,0 0.9001,0.0917 0.9878,0.32029 0.1936,0.50432 -0.2578,0.86106 -1.0893,0.86106 -0.7207,0 -0.7635,0.0339 -0.7635,0.60361 0,1.11793 -0.5798,1.69117 -1.1419,1.12902 z m -29.7659,0.73341 c -0.1347,-0.16238 -0.1936,-0.42925 -0.1307,-0.59307 0.099,-0.25856 1.0907,-0.29784 7.517,-0.29784 h 7.4026 l -0.062,0.54144 -0.062,0.54146 -7.2096,0.0516 c -6.2104,0.0445 -7.2436,0.0107 -7.4547,-0.2436 z m -0.074,-3.34968 c -0.063,-0.16374 -0.063,-0.43168 0,-0.59542 0.1,-0.25959 1.0506,-0.2911 7.4265,-0.24611 l 7.3122,0.0516 v 0.49223 0.49223 l -7.3122,0.0516 c -6.3759,0.045 -7.3269,0.0135 -7.4265,-0.24612 z m -0.056,-3.35203 c -0.063,-0.16382 0,-0.43069 0.1307,-0.59307 0.2111,-0.25431 1.2443,-0.28807 7.4547,-0.2436 l 7.2096,0.0516 0.062,0.54145 0.062,0.54145 h -7.4026 c -6.4262,0 -7.4178,-0.0393 -7.517,-0.29785 z m 0.113,-3.16425 c -0.1878,-0.22625 -0.2021,-0.40188 -0.052,-0.6399 0.1855,-0.29415 0.9167,-0.33373 7.0766,-0.38298 3.7784,-0.0302 7.0692,-0.007 7.3128,0.053 0.5249,0.12784 0.6208,0.97451 0.1316,1.16223 -0.1713,0.0657 -3.4387,0.11951 -7.2609,0.11951 -6.1005,0 -6.981,-0.0381 -7.2082,-0.31184 z m 17.0821,-0.50601 c -0.3073,-0.17194 -0.3327,-1.21631 -0.3327,-13.66533 v -13.47965 l -9.4015,0.0511 -9.4016,0.0511 -0.053,5.01124 c -0.055,5.20028 -0.1086,5.51648 -0.8719,5.10798 -0.329,-0.17608 -0.3552,-0.58669 -0.3552,-5.57354 0,-4.30519 0.054,-5.42809 0.2684,-5.60624 0.194,-0.16098 3.1296,-0.20862 10.5829,-0.17178 l 10.3145,0.051 0.051,14.10537 c 0.053,14.88651 0.069,14.6051 -0.8008,14.1182 z m -17.0644,-2.81973 c -0.1347,-0.16237 -0.1931,-0.43034 -0.1298,-0.59547 0.1009,-0.26293 1.0274,-0.29383 7.4547,-0.24862 l 7.3394,0.0516 v 0.49222 0.49223 l -7.2096,0.0516 c -6.2104,0.0445 -7.2436,0.0107 -7.4547,-0.2436 z m 20.0282,-0.23935 c -0.3262,-0.0852 -0.3431,-0.80842 -0.2954,-12.62741 l 0.051,-12.53708 10.3145,-0.051 c 7.4533,-0.0368 10.3889,0.0108 10.5829,0.17178 0.4157,0.345 0.3927,11.83666 -0.024,12.18282 -0.1611,0.13366 -0.4255,0.19212 -0.5876,0.12991 -0.2504,-0.0961 -0.3026,-0.95138 -0.3471,-5.68264 l -0.052,-5.56953 -9.4015,-0.0511 -9.4016,-0.0511 v 11.42158 11.42159 h 9.4474 9.4474 l 0.053,-4.9689 c 0.05,-4.68421 0.074,-4.97297 0.4228,-5.04008 0.2036,-0.0392 0.4459,0.0483 0.5384,0.19428 0.093,0.14602 0.1696,2.63244 0.1713,5.5254 0,5.00046 -0.016,5.26995 -0.3778,5.46372 -0.3758,0.20111 -19.7842,0.26519 -20.5403,0.0678 z m -20.1025,-3.11033 c -0.063,-0.16374 -0.063,-0.43168 0,-0.59542 0.1,-0.25959 1.0505,-0.29111 7.4264,-0.24611 l 7.3122,0.0516 v 0.49222 0.49223 l -7.3122,0.0516 c -6.3759,0.045 -7.3268,0.0135 -7.4264,-0.24611 z m 22.9808,-1.5775 c -0.062,-0.16244 -0.062,-0.42823 0,-0.59067 0.1698,-0.44247 14.3264,-0.44489 14.6936,-0.002 0.1336,0.16105 0.1916,0.42685 0.1287,0.59067 -0.1719,0.44791 -14.6504,0.45036 -14.8223,0.002 z m -23.0363,-1.77213 c -0.063,-0.16513 -0.01,-0.43309 0.1298,-0.59547 0.2111,-0.25431 1.2443,-0.28807 7.4547,-0.24361 l 7.2096,0.0516 v 0.49223 0.49223 l -7.3394,0.0516 c -6.4273,0.0452 -7.3538,0.0143 -7.4547,-0.24862 z m 23.2112,-1.21318 c -0.4381,-0.17679 -0.2918,-1.03233 0.1969,-1.15135 0.2437,-0.0593 3.5344,-0.0832 7.3128,-0.053 6.3819,0.0511 6.8853,0.0802 7.0881,0.41101 0.1748,0.28508 0.1421,0.41269 -0.1639,0.6399 -0.3168,0.23522 -1.5641,0.28114 -7.285,0.26826 -3.7965,-0.009 -7.0135,-0.0602 -7.1489,-0.11485 z m -18.2417,-2.34983 c -0.1956,-0.50984 0.2522,-0.86693 1.0871,-0.86693 h 0.7635 v -3.83937 -3.83938 h -1.7596 -1.7595 l -0.062,0.6399 c -0.052,0.53484 -0.1425,0.6399 -0.554,0.6399 -0.4627,0 -0.4958,-0.0697 -0.5522,-1.16309 -0.041,-0.7972 0.021,-1.21432 0.1969,-1.32599 0.4471,-0.28356 9.8754,-0.20725 10.2725,0.0831 0.2709,0.19811 0.3317,0.48273 0.2837,1.32902 -0.057,1.01089 -0.094,1.08073 -0.6024,1.13922 -0.5011,0.0577 -0.5415,0.01 -0.5415,-0.6399 v -0.7022 h -1.8704 -1.8705 v 3.82859 3.82859 l 0.9352,0.06 c 0.8504,0.0546 0.9353,0.1047 0.9353,0.55224 v 0.49223 l -2.3886,0.0551 c -2.0739,0.0479 -2.4051,0.0121 -2.5138,-0.27107 z m 18.0853,-0.91713 c -0.053,-0.13855 -0.073,-2.50971 -0.044,-5.26924 l 0.053,-5.01733 h 7.3834 7.3835 v 5.21761 5.21761 l -7.3395,0.0516 c -5.8175,0.0409 -7.3595,-6.2e-4 -7.4361,-0.20028 z m 6.8015,-2.52407 c -0.9205,-0.86499 -1.8099,-1.65165 -1.9766,-1.74814 -0.2278,-0.13196 -0.7159,0.18694 -1.9689,1.28662 -0.9162,0.80413 -1.6945,1.59464 -1.7295,1.7567 -0.055,0.25365 0.4519,0.29345 3.6424,0.28607 l 3.7062,-0.009 z m 6.7927,1.27013 c 0,-0.12169 -0.9094,-1.0395 -2.0209,-2.03957 l -2.0209,-1.81833 -0.8832,0.72374 c -0.4858,0.39806 -0.8859,0.78426 -0.8891,0.85823 0,0.074 0.5949,0.68794 1.329,1.36438 l 1.3349,1.2299 1.5751,-0.0485 c 1.0056,-0.031 1.5751,-0.12855 1.5751,-0.2698 z m -9.0115,-4.79543 c 0.083,0.002 0.5938,0.391 1.1345,0.86393 l 0.983,0.85989 1.3076,-1.15927 c 0.7191,-0.6376 1.3963,-1.15927 1.5047,-1.15927 0.1085,0 1.0415,0.75311 2.0733,1.67358 1.0319,0.92046 1.9304,1.67356 1.9968,1.67356 0.066,0 0.096,-1.30686 0.066,-2.90413 l -0.054,-2.90414 -6.2513,-0.052 -6.2513,-0.052 v 3.06354 3.06355 l 1.6698,-1.48565 c 0.9184,-0.81712 1.738,-1.48383 1.8213,-1.48161 z m 1.0223,0.0111 c -1.092,-1.09205 -0.4636,-2.78586 1.0495,-2.82875 1.8236,-0.0517 2.4192,2.31276 0.7998,3.17523 -0.6933,0.36929 -1.235,0.26781 -1.8493,-0.34648 z m 1.5411,-1.14717 c 0.1077,-0.32332 -0.5092,-0.55412 -0.7738,-0.28951 -0.1133,0.11323 -0.1433,0.30711 -0.067,0.43083 0.1739,0.28148 0.7311,0.18782 0.8407,-0.14132 z"
       id="path89" /></g></svg>
